<?xml version="1.0" standalone="no"?>
<!DOCTYPE svg PUBLIC "-//W3C//DTD SVG 20010904//EN"
 "http://www.w3.org/TR/2001/REC-SVG-20010904/DTD/svg10.dtd">
<svg version="1.0" xmlns="http://www.w3.org/2000/svg"
 width="158.000000pt" height="158.000000pt" viewBox="0 0 158.000000 158.000000"
 preserveAspectRatio="xMidYMid meet">

<g transform="translate(0.000000,158.000000) scale(0.100000,-0.100000)"
fill="#000000" stroke="none">
<path d="M0 790 l0 -790 790 0 790 0 0 790 0 790 -790 0 -790 0 0 -790z m387
600 c15 -6 112 -95 216 -198 l187 -187 193 191 c105 106 202 194 215 197 44
10 89 -12 145 -72 57 -62 71 -98 55 -140 -5 -15 -93 -110 -196 -214 l-187
-187 187 -188 c103 -103 192 -200 198 -216 16 -44 -3 -86 -69 -149 -62 -59
-94 -73 -138 -62 -18 4 -95 75 -215 198 l-187 192 -188 -186 c-103 -103 -199
-192 -212 -199 -44 -22 -83 -5 -156 71 -66 68 -67 71 -62 111 5 38 22 57 191
227 102 103 186 193 186 201 0 8 -83 98 -185 200 -198 198 -212 219 -182 276
20 38 105 120 137 133 33 13 34 13 67 1z"/>
<path d="M274 1318 c-53 -49 -78 -92 -70 -122 3 -12 91 -107 196 -210 128
-127 190 -195 190 -209 0 -13 -24 -46 -57 -80 -32 -33 -48 -54 -36 -48 14 7
24 8 28 1 3 -5 21 -10 39 -10 69 0 122 97 103 189 -9 45 -60 104 -187 217 -25
22 -52 49 -60 61 -8 11 -28 37 -44 57 -26 32 -27 39 -15 52 13 12 23 7 77 -38
34 -29 102 -96 151 -149 114 -122 129 -130 225 -114 41 6 86 19 101 29 15 10
29 15 32 12 3 -2 -3 -28 -12 -56 -34 -103 -17 -153 79 -225 79 -60 90 -33 16
40 -27 27 -50 56 -50 64 0 8 71 86 157 173 148 149 156 159 147 184 -25 71
-79 52 -170 -57 -36 -44 -70 -79 -74 -79 -15 0 8 60 36 97 15 20 53 52 83 71
53 33 57 38 59 76 1 30 -5 49 -22 71 l-24 29 -185 -187 c-103 -103 -192 -187
-199 -187 -6 0 -100 88 -208 195 -227 226 -227 226 -306 153z m85 -212 c39
-40 47 -66 19 -66 -14 0 -87 81 -88 98 0 24 26 11 69 -32z m69 -83 c-2 -10
-10 -18 -18 -18 -8 0 -16 8 -18 18 -2 12 3 17 18 17 15 0 20 -5 18 -17z"/>
<path d="M758 643 c7 -3 16 -2 19 1 4 3 -2 6 -13 5 -11 0 -14 -3 -6 -6z"/>
</g>
</svg>
